Patient4_TMGait_0pt7_02_left_38_EMG.mot
version=1
nRows=16
nColumns=33
inDegrees=no
endheader
time	1LAddLong	2LGlutMax	3LGlutMed	4LIliopsoas	5LSemiMemb	6LBicFemLong	7LRecFem	8LVastMed	9LVastLat	10LGasMed	11LTibAnt	12lTibPost	13LPeroneusLong	14LSol	15LExtDigLong	16LFlexDigLong	17RAddLong	18RGlutMax	19RGlutMed	20RIliopsoas	21RSemiMemb	22RBicFemLong	23RRecFem	24RVastMed	25RVastLat	26RGasMed	27RTibAnt	28RTibPost	29RPeroneusLong	30RSol	31RExtDigLong	32RFlexDigLong
44.688	0.0177	-0.028839	-0.059967	0.00824	-0.022278	0.005188	0.081024	0.010223	0.035553	0.000916	0.03952	-0.002441	-0.007172	-0.029449	0.042572	-0.001068	0.024719	-0.16449	-0.00412	0.1413	0.001678	-0.095062	0.36133	-0.50995	-0.080872	-0.017548	0.44403	0.1387	-0.168	-0.34012	-0.005341	-0.007782
44.689	0.025177	-0.001984	-0.040741	-0.004578	-0.016327	0.024719	0.077362	0.010529	0.039063	0.004272	0.045013	-0.003662	-0.006561	-0.034637	-0.046692	0.000305	0.009613	-0.19913	-0.056152	-0.099487	-0.30579	-0.032043	0.1088	-0.45502	-0.1178	-0.007782	0.10071	0.041199	-0.089264	-0.72205	-0.000916	-0.002899
44.69	0.014038	-0.007629	0.004272	-0.005341	-0.00885	0.014038	0.07431	0.004425	0.037537	0.006714	-0.025635	0.00351	-0.020142	-0.032196	-0.039673	-0.007324	0.001831	-0.1622	-0.18707	-0.25681	-0.52582	0.038757	-0.43671	-0.24323	-0.043793	-0.010529	-0.38605	0.001526	-0.10468	-0.52445	-0.002441	0.007629
44.691	0.021057	0.00351	-0.02243	0.001678	-0.01709	0.015106	0.073395	0.014801	0.045776	-0.007629	-0.13733	-0.005341	-0.010834	-0.040588	0.069275	0.012207	0.00824	-0.1181	-0.5513	-0.12619	-0.49972	0.041504	-0.80292	-0.036469	0.17532	-0.007019	-0.2739	0.007629	0.023956	-0.17334	-0.002594	-0.002594
44.692	0.016327	-0.010376	-0.042114	0.007324	-0.032349	-0.019226	0.063019	0.003815	0.050964	-0.013733	-0.1532	-0.000763	0.010986	-0.035858	0.35431	-0.008392	0.002289	-0.066986	-0.86533	0.077362	-0.22675	0.063629	-0.74448	-0.044708	0.25574	0.014954	-0.32044	0.005035	0.06012	-0.048065	-0.000305	-0.000916
44.693	0.024414	-0.002441	-0.058899	0.035248	-0.025635	-0.070038	0.053101	0.010834	0.041046	-0.024872	-0.056763	-0.000458	0.053253	-0.075684	0.40848	0.010071	-0.002594	-0.032349	-0.27359	0.22614	0.13489	0.053711	-0.4335	0.030518	0.1355	0.024719	-0.62317	0.013428	0.035858	-0.3273	-0.001831	0.002136
44.694	0.023499	0.017548	-0.041504	0.033417	-0.019531	-0.054932	0.052032	0.003357	0.059814	-0.018158	0.072021	-0.003662	0.064697	-0.06012	0.13702	0.007019	-0.006866	-0.048218	0.45715	0.1828	0.46493	-0.049438	-0.16769	0.12604	0.047913	0.015717	-0.84564	-0.015564	-0.065918	-0.66589	-0.000916	0.00351
44.695	0.028992	0.024261	-0.023651	0.000763	-0.011597	-0.085144	0.032806	0.003815	0.066528	-0.019073	0.17349	-0.005798	-0.01709	-0.008545	0.03479	0.009003	0.015411	-0.008087	0.11749	0.12985	0.38849	-0.15823	-0.10483	0.32745	0.098419	-0.027008	-0.5661	-0.06485	-0.35324	-0.28519	0.008087	-0.001373
44.696	0.023956	0.00061	-0.051422	0.002899	-0.001221	-0.088654	0.0177	0.000916	0.046844	-0.018005	0.1976	-0.001678	-0.008392	0.000763	-0.26474	-0.002289	-0.015411	-0.076599	0.042877	0.13184	-0.059967	-0.16007	-0.063934	0.45487	0.13825	-0.004425	-0.17273	-0.27771	-0.16647	0.17639	-0.002441	-0.00473
44.697	0.010681	0.027313	-0.049133	-0.004578	-0.012512	-0.05127	0.035248	0.00061	0.055542	-0.021667	0.081177	-0.000916	0.014648	0.023346	-0.24536	0.004425	-0.011902	-0.012512	0.3772	0.083313	-0.14038	-0.08255	-0.050354	0.18524	0.11169	0.021973	0.032349	0.046387	0.066833	-0.055084	0.001984	-0.020142
44.698	0.001984	-0.021362	0.053711	-0.022888	-0.007324	-0.039673	0.020905	0.002747	0.056458	-0.02594	0.14511	-0.005188	-0.006409	0.032959	-0.051727	-0.014496	0.042725	0.014496	0.50384	0.054626	-0.16663	0.033112	-0.080261	0.02182	0.077667	0.046082	0.02594	0.33676	0.48248	-0.32181	-0.006714	-0.016327
44.699	0.00061	-0.010071	0.06485	0.011444	-0.021515	-0.016022	0.019684	-0.000916	0.052643	-0.018921	0.29663	-0.007935	-0.027771	-0.003967	-0.026855	-0.015106	0.038605	-0.0383	0.59387	0.041046	-0.16342	0.092316	-0.040436	-0.007629	0.041656	0.05249	0.012054	0.12421	0.48492	-0.37643	-0.011139	-0.000916
44.7	-0.001221	-0.01236	0.041504	0.019226	-0.021515	-0.035858	0.016022	0.000763	0.037994	0.004883	-0.018921	-0.003815	-0.010376	-0.10819	0.089874	-0.016937	0.01297	0.020294	0.31693	0.037079	-0.057678	0.1355	0.0354	0.024719	0.029144	0.034637	0.10681	-0.030212	0.22476	-0.25604	-0.00824	-0.007477
44.701	-0.007172	-0.044861	0.030212	0.028992	-0.027771	-0.024567	0.004425	-0.003662	0.03952	-0.003967	-0.17395	-0.001526	0.041962	-0.090942	0.030823	0.004578	-0.063934	0.015564	0.15289	0.01297	-0.12665	0.1561	0.047302	0.14389	0.034637	-0.041809	0.075684	-0.37582	0.037842	-0.54184	-0.006866	-0.005798
44.702	-0.001068	-0.052948	0.018616	0.031738	-0.045471	0.01236	-0.019684	0.007324	0.035553	-0.03418	0.23453	-0.001678	0.068512	-0.028076	-0.031891	0.010834	-0.075378	0.058594	0.3122	0.005341	0.15595	-0.016174	0.070801	0.14832	0.006409	-0.11704	-0.103	-0.17425	-0.12314	-0.96939	-0.001678	-0.013733
44.703	-0.010529	-0.025635	-0.007324	0.037231	-0.061035	0.002747	0.012665	-0.000916	0.023651	-0.041351	0.36606	-0.002747	0.061188	0.060272	-0.16281	0.008698	-0.035706	0.053558	0.18906	0.011139	0.45609	-0.15915	0.10956	0.12329	-0.014496	-0.045166	-0.22354	0.18829	-0.25055	-0.7933	0	-0.018463
